<svg width="340" height="51" viewBox="0 0 340 51" fill="none" xmlns="http://www.w3.org/2000/svg">
<g filter="url(#filter0_di_593_3286)">
<path d="M322.781 38.4227C322.781 39.6164 322.781 40.7847 322.781 41.956C322.781 43.457 321.869 44.9062 320.368 44.9079C316.99 44.9116 313.611 44.9094 310.233 44.9094C308.498 44.9094 306.763 44.9529 305.03 44.8991C302.497 44.8206 300.335 43.7431 298.49 41.8706C297.285 40.6472 296.381 39.2103 295.811 37.53C295.429 36.4016 295.2 35.2407 295.201 34.0288C295.205 27.0307 295.219 20.0325 295.189 13.0346C295.182 11.6282 295.477 10.32 295.963 9.05793C297.166 5.93908 299.271 3.81643 302.185 2.65601C303.221 2.24343 304.306 2.0266 305.415 2.02614C315.19 2.02209 324.966 2.02379 334.741 2.02379C335.16 2.02379 335.5 2.3637 335.5 2.78297C335.5 5.94457 335.5 9.06303 335.5 12.2403C335.5 12.6735 335.155 13.0386 334.722 13.0387C327.334 13.0398 319.947 13.0384 312.559 13.0409C311.486 13.0412 310.52 13.3537 309.756 14.225C309.432 14.5944 309.259 15.0179 309.259 15.5406C309.265 20.8503 309.267 26.1601 309.255 31.4698C309.254 32.0345 309.456 32.4769 309.802 32.8356C310.44 33.4976 311.21 33.8903 312.105 33.8895C315.595 33.8863 319.085 33.8672 322.575 33.856C322.706 33.8556 322.781 34.0118 322.781 34.142C322.781 35.5284 322.781 36.9424 322.781 38.4227Z" fill="white"/>
<path d="M157.672 26.8208C157.672 24.7942 157.672 22.826 157.672 20.7867C157.672 20.3745 158.007 20.0403 158.419 20.0403C161.933 20.0403 165.448 20.0411 168.962 20.0396C169.598 20.0393 170.213 19.9238 170.782 19.5996C172.04 18.8839 172.575 17.7069 172.486 16.2186C172.404 14.8332 171.709 13.8448 170.537 13.309C170.133 13.1245 169.668 13.0194 169.23 13.0166C166.775 13.001 164.321 13.0298 161.866 13.0393C160.627 13.044 159.388 13.0412 158.149 13.0383C157.901 13.0377 157.715 12.8076 157.715 12.5601C157.715 9.25871 157.715 5.97409 157.715 2.63627C157.715 2.31575 157.961 2.02641 158.281 2.02624C162.877 2.02379 167.474 1.95651 172.068 2.04748C175.288 2.11123 178.329 3.00275 181.007 5.05905C183.984 7.34577 185.763 10.4504 186.329 14.3624C186.651 16.592 186.501 18.7946 185.847 20.9382C185.139 23.2559 183.958 25.2538 182.277 26.8861C180.375 28.7345 178.139 29.8764 175.665 30.4868C174.161 30.8577 172.847 32.3426 174.111 33.2371C174.125 33.247 174.139 33.2569 174.153 33.2667C174.753 33.6775 175.407 33.8997 176.129 33.8978C179.328 33.8895 182.527 33.8942 185.726 33.8942C186.113 33.8942 186.427 34.2082 186.427 34.5955C186.427 37.8186 186.427 41.0029 186.427 44.2327C186.427 44.6067 186.124 44.91 185.75 44.91C180.163 44.91 174.576 44.939 168.989 44.8968C166.483 44.8779 164.313 43.8256 162.465 41.9978C160.93 40.4793 159.853 38.6417 159.373 36.4405C159.178 35.5469 159.096 34.6172 159.036 33.6982C158.995 33.0644 159.009 32.4263 159.018 31.7673C159.024 31.3882 158.738 31.0762 158.359 31.0572C157.981 31.0382 157.672 30.7251 157.672 30.3459C157.672 29.1787 157.672 28.0256 157.672 26.8208Z" fill="white"/>
<path d="M98.8197 17.8405C99.9632 14.0116 101.1 10.2123 102.236 6.41733C103.011 3.82762 105.394 2.05371 108.097 2.05371C109.757 2.05371 111.417 2.05371 113.09 2.05371C113.4 2.05371 113.688 2.28728 113.689 2.59762C113.692 7.12459 113.694 11.6516 113.685 16.1785C113.684 16.5144 113.627 16.8597 113.543 17.1845C112.585 20.8934 111.618 24.5991 110.654 28.3059C110.602 28.5028 110.76 28.6936 110.963 28.6993C111.611 28.7177 112.238 28.6999 112.864 28.7039C113.63 28.7087 114.396 28.7049 115.162 28.7049C116.557 28.7049 117.782 29.6306 118.164 30.9724C118.328 31.5504 118.493 32.1285 118.657 32.7071C119.657 36.2248 117.015 39.7227 113.358 39.7227C112.187 39.7227 111.017 39.7227 109.849 39.7227C108.216 39.7227 106.757 40.7734 106.22 42.315C105.684 43.8566 104.237 44.8722 102.605 44.8722C98.9492 44.8722 95.3103 44.8722 91.6481 44.8722C91.1889 44.8722 90.8455 44.4327 90.9772 43.9928C92.1232 40.1642 93.2713 36.3364 94.4179 32.508C95.8492 27.7291 97.2796 22.9499 98.711 18.1711C98.7388 18.0783 98.7747 17.9884 98.8197 17.8405Z" fill="white"/>
<path d="M262.659 26.052C259.081 22.9747 255.539 19.9325 251.999 16.8883C250.854 15.9037 249.717 14.9075 248.566 13.9313C248.314 13.7177 248.194 13.4943 248.195 13.1342C248.206 9.53721 248.202 5.94014 248.204 2.34308C248.204 2.18476 248.338 2.0519 248.494 2.02564C248.551 2.01608 248.609 2.00929 248.666 2.0091C250.22 2.004 251.774 2.01274 253.328 2.00005C253.639 1.99752 253.884 2.08839 254.127 2.29845C256.043 3.95479 257.969 5.59756 259.888 7.24959C262.529 9.52321 265.166 11.8018 267.806 14.0773C270.427 16.3373 273.048 18.5987 275.673 20.8547C278.491 23.2772 281.316 25.6908 284.134 28.1146C286.123 29.8263 288.106 31.5484 290.09 33.2668C290.15 33.3181 290.168 33.4024 290.168 33.4808C290.168 37.0873 290.168 40.6827 290.168 44.3285C290.168 44.6742 289.904 44.9871 289.558 44.988C288.117 44.9919 286.675 44.9748 285.234 44.9997C284.82 45.0069 284.506 44.865 284.192 44.5945C280.181 41.1339 276.165 37.6816 272.15 34.2264C268.998 31.5136 265.847 28.7998 262.659 26.052Z" fill="white"/>
<path d="M41.5117 3.67926C44.0731 4.9153 46.1032 6.7506 47.5368 9.31463C48.7264 11.4423 49.3464 13.7542 49.3949 16.2586C49.4338 18.2681 49.1326 20.1972 48.4227 22.0449C47.3593 24.8129 45.6317 26.9704 43.284 28.5507C41.4395 29.7923 39.4261 30.508 37.2943 30.8588C36.0495 31.0637 34.7964 31.1275 33.5363 31.1229C29.5034 31.1081 25.4705 31.1174 21.4376 31.1174C21.0069 31.1174 20.669 30.8243 20.6503 30.394C20.5637 28.3952 20.5381 22.9424 20.6107 20.801C20.6243 20.4013 20.9534 20.1014 21.3533 20.1014C24.8455 20.1014 28.3377 20.1108 31.8298 20.0906C32.3151 20.0878 32.8224 20.0125 33.2805 19.8448C34.7947 19.2905 35.6349 17.6298 35.375 15.9699C35.1046 14.2423 33.6759 13.0572 32.0594 13.0673C28.3651 13.0906 24.6707 13.0915 20.9764 13.0995C20.7741 13.0999 20.6234 12.9086 20.6234 12.7063C20.6234 9.35517 20.6234 6.02762 20.6234 2.65862C20.6234 2.36392 20.8439 2.08799 21.1386 2.08778C25.3968 2.08483 29.6554 2.05084 33.9131 2.09831C36.506 2.12721 39.063 2.47812 41.5117 3.67926Z" fill="white"/>
<path d="M204.666 2.02491C204.954 2.00894 205.141 2.03738 205.124 2.36023C205.116 2.53098 205.124 2.70273 205.124 2.87403C205.124 16.6027 205.124 30.3314 205.124 44.06C205.124 44.5117 204.758 44.8779 204.306 44.8779C202.236 44.8779 200.177 44.8779 198.119 44.8779C194.25 44.8779 191.113 41.7415 191.113 37.8725C191.113 30.4492 191.113 23.0223 191.113 15.5775C191.113 8.0926 197.181 2.02479 204.666 2.02491Z" fill="white"/>
<path d="M229.188 19.037C229.188 15.696 229.188 12.3802 229.188 9.06732C229.188 5.19866 232.331 2.0625 236.2 2.0625C240.069 2.0625 243.198 5.19867 243.198 9.06733C243.198 18.6572 243.198 28.249 243.198 37.8584C243.198 41.727 240.095 44.8632 236.227 44.8632C232.358 44.8632 229.188 41.7271 229.188 37.8584C229.188 31.6021 229.188 25.339 229.188 19.037Z" fill="white"/>
<path d="M141.54 8.60973C141.54 4.99271 144.472 2.06055 148.089 2.06055C148.241 2.06055 148.393 2.06055 148.545 2.06055C152.414 2.06055 155.55 5.19671 155.55 9.06537C155.55 18.6564 155.55 28.2486 155.55 37.8582C155.55 41.7268 152.439 44.863 148.571 44.863C144.702 44.863 141.54 41.7268 141.54 37.8582C141.54 28.1265 141.54 18.392 141.54 8.60973Z" fill="white"/>
<path d="M65.4897 44.7169C65.4965 44.8149 65.4216 44.8983 65.3239 44.907C65.2254 44.9158 65.127 44.9239 65.0286 44.9239C60.6377 44.9256 56.2468 44.9252 51.8558 44.9252C51.6626 44.9252 51.516 44.8164 51.51 44.6233C51.4209 41.7665 51.3865 19.6914 51.4283 8.50863C51.4422 4.79606 54.1971 2.07324 57.9097 2.07324C62.0687 2.07324 65.4772 5.44445 65.4778 9.60342C65.4796 21.2802 65.4822 32.9636 65.4897 44.7169Z" fill="white"/>
<path d="M18.5174 20.3639C18.5174 26.436 18.5174 32.4678 18.5174 38.4849C18.5174 42.2261 16.6007 44.9066 12.8596 44.9359C8.48797 44.9701 4.5 41.5241 4.5 37.1524C4.5 27.8041 4.5 18.4511 4.5 9.08196C4.5 5.21116 7.61398 2.07324 11.4848 2.07324C15.3556 2.07324 18.5174 5.21114 18.5174 9.08194C18.5174 12.8312 18.5174 16.5836 18.5174 20.3639Z" fill="white"/>
<path d="M120.822 32.9027C119.962 29.8888 119.127 26.9277 118.285 23.9691C117.502 21.2203 116.709 18.4748 115.929 15.7251C115.871 15.5195 115.857 15.2921 115.857 15.0748C115.853 10.9152 115.854 6.7555 115.855 2.59584C115.855 2.29571 116.12 2.0625 116.42 2.0625C118.131 2.0625 119.835 2.0625 121.544 2.0625C124.198 2.0625 126.537 3.80365 127.298 6.34562C130.247 16.1883 133.197 26.0382 136.154 35.9098C137.492 40.3758 134.156 44.8689 129.494 44.8689C126.382 44.8689 123.639 42.8027 122.788 39.8088C122.138 37.521 121.484 35.2208 120.822 32.9027Z" fill="white"/>
<path d="M334.891 17.9862C335.099 17.9863 335.43 17.9401 335.469 18.1448C335.501 18.3097 335.489 18.485 335.489 18.6562C335.49 27.2225 335.489 35.7887 335.489 44.355C335.489 44.6077 335.325 44.8087 335.073 44.8246C334.258 44.8761 332.414 44.9081 330.511 44.917C327.226 44.9322 324.857 42.4464 324.857 39.1618C324.857 37.7305 324.857 36.2973 324.857 34.8613C324.857 31.6369 322.218 29.0231 318.994 29.0231C316.366 29.0231 314.454 27.2069 314.43 24.579C314.428 24.3877 314.427 24.1945 314.426 24.0004C314.403 20.5916 317.108 17.9843 320.517 17.9844C325.29 17.9845 330.075 17.9849 334.891 17.9862Z" fill="white"/>
<path d="M279.813 2.02344C280.031 2.02344 280.249 2.02344 280.466 2.02344C285.822 2.02344 290.164 6.36563 290.164 11.722C290.164 17.7076 290.164 23.6881 290.164 29.7083C290.164 29.9726 289.852 30.1467 289.652 29.9744C286.077 26.9029 282.504 23.8287 278.932 20.7538C278.122 20.0569 277.322 19.3461 276.503 18.663C276.271 18.4695 276.135 18.2827 276.135 17.9454C276.144 12.7362 276.142 7.52689 276.145 2.31762C276.145 2.14397 276.324 2.02344 276.498 2.02344C277.576 2.02344 278.666 2.02344 279.813 2.02344Z" fill="white"/>
<path d="M257.642 44.9094C252.448 44.9094 248.236 40.6982 248.236 35.5033C248.236 29.2581 248.236 23.0309 248.236 16.7989C248.236 16.7704 248.25 16.7426 248.277 16.7318C248.297 16.7238 248.327 16.7076 248.338 16.7165C251.669 19.5609 254.999 22.4062 258.323 25.247C260.806 27.3692 262.236 30.4722 262.236 33.7388C262.236 35.9294 262.236 38.1189 262.236 40.3157C262.236 42.8527 260.179 44.9094 257.642 44.9094Z" fill="white"/>
<path d="M80.6201 13.0402C78.3745 13.0402 76.1466 13.0402 73.9225 13.0402C70.4118 13.0402 67.5659 10.175 67.5659 6.66433C67.5659 3.94929 69.3843 2.06323 72.0992 2.03677C75.2059 2.00649 79.328 1.99504 82.545 2.00852C85.4501 2.02069 87.5893 4.21264 87.5893 7.11769C87.5893 10.3739 84.9496 13.0402 81.6934 13.0402C81.337 13.0402 80.9793 13.0402 80.6201 13.0402Z" fill="white"/>
<path d="M68.9634 44.737C68.9614 44.7244 68.9629 44.727 68.963 44.7143C68.9713 43.1807 68.9833 41.6472 68.9869 40.1136C68.9911 38.3285 68.9879 36.5433 68.9879 34.7582C68.9879 34.3301 69.2586 34.0063 69.6862 33.9856C71.9148 33.878 78.9097 33.8173 83.9031 33.8365C86.9468 33.8482 89.0951 35.9527 89.1139 38.9964C89.1269 41.1077 89.114 43.3183 89.067 44.4223C89.0562 44.6766 88.8632 44.9081 88.6086 44.9081C82.1441 44.9088 75.6797 44.9064 69.1551 44.8557C69.0751 44.8551 68.976 44.816 68.9634 44.737Z" fill="white"/>
<path d="M207.242 42.9755C207.242 37.9823 211.289 33.9346 216.283 33.9346C217.695 33.9346 219.106 33.9346 220.518 33.9346C223.537 33.9346 225.984 36.3651 225.984 39.3834C225.984 42.4017 223.537 44.8649 220.518 44.8649C216.736 44.8649 212.946 44.8649 209.131 44.8649C208.088 44.8649 207.242 44.019 207.242 42.9755Z" fill="white"/>
<path d="M69.5264 21.0935C69.5264 19.3242 70.7366 18.0361 72.5058 18.0123C74.5868 17.9842 77.4273 17.9712 79.9403 17.9754C83.2584 17.981 85.6729 20.4808 85.6729 23.799C85.6729 26.8178 83.6122 28.993 80.5936 29.0238C76.4593 29.066 71.0957 29.0592 69.6996 28.9759C69.6557 28.9733 69.6201 28.9545 69.5922 28.9205C69.5776 28.9027 69.5521 28.8838 69.552 28.8653C69.5422 26.2992 69.5343 23.733 69.5264 21.0935Z" fill="white"/>
</g>
<defs>
<filter id="filter0_di_593_3286" x="0.5" y="0" width="339" height="51" filterUnits="userSpaceOnUse" color-interpolation-filters="sRGB">
<feFlood flood-opacity="0" result="BackgroundImageFix"/>
<feColorMatrix in="SourceAlpha" type="matrix" values="0 0 0 0 0 0 0 0 0 0 0 0 0 0 0 0 0 0 127 0" result="hardAlpha"/>
<feOffset dy="2"/>
<feGaussianBlur stdDeviation="2"/>
<feComposite in2="hardAlpha" operator="out"/>
<feColorMatrix type="matrix" values="0 0 0 0 0 0 0 0 0 0 0 0 0 0 0 0 0 0 0.25 0"/>
<feBlend mode="normal" in2="BackgroundImageFix" result="effect1_dropShadow_593_3286"/>
<feBlend mode="normal" in="SourceGraphic" in2="effect1_dropShadow_593_3286" result="shape"/>
<feColorMatrix in="SourceAlpha" type="matrix" values="0 0 0 0 0 0 0 0 0 0 0 0 0 0 0 0 0 0 127 0" result="hardAlpha"/>
<feOffset dy="4"/>
<feGaussianBlur stdDeviation="2"/>
<feComposite in2="hardAlpha" operator="arithmetic" k2="-1" k3="1"/>
<feColorMatrix type="matrix" values="0 0 0 0 0 0 0 0 0 0 0 0 0 0 0 0 0 0 0.25 0"/>
<feBlend mode="normal" in2="shape" result="effect2_innerShadow_593_3286"/>
</filter>
</defs>
</svg>
