<svg width="25" height="25" viewBox="0 0 25 25" fill="none" xmlns="http://www.w3.org/2000/svg">
<path d="M14 7.10001L5.40006 15.7C5.30006 15.8 5.30009 15.8 5.30009 15.9L4.00004 19.9C3.90004 20.3 4.30011 20.7 4.70011 20.6L6.30009 20.1L8.80009 19.3C8.90009 19.3 9.00004 19.2 9.00004 19.2L17.6 10.6L14 7.10001Z" fill="#1A1A1A"/>
<path d="M19.7001 4.90001C18.7001 4.00001 17.2001 4.00001 16.2001 4.90001L15 6.10002L18.4 9.49998L19.6 8.30003C20.1 7.80003 20.3 7.20002 20.3 6.60002C20.4 6.00002 20.2001 5.30001 19.7001 4.90001Z" fill="#1A1A1A"/>
</svg>
