<svg width="25" height="25" viewBox="0 0 25 25" fill="none" xmlns="http://www.w3.org/2000/svg">
<path d="M11 11.6L5.30005 7C5.60005 6.8 6.00002 6.69998 6.40002 6.69998H18.9C19.3 6.69998 19.7 6.8 20 7L14.3 11.6C13.4 12.4 12 12.4 11 11.6Z" fill="#1A1A1A"/>
<path d="M21 8.69998V16.7C21 17.8 20.1 18.7 19 18.7H6.5C5.4 18.7 4.5 17.8 4.5 16.7V8.69998C4.5 8.29998 4.60005 7.90001 4.80005 7.60001L10.5 12.2C11.1 12.7 11.9 13 12.7 13C13.5 13 14.2 12.7 14.9 12.2L20.6 7.60001C20.8 7.90001 21 8.29998 21 8.69998Z" fill="#1A1A1A"/>
</svg>
