<svg width="25" height="24" viewBox="0 0 25 24" fill="none" xmlns="http://www.w3.org/2000/svg">
<path d="M4.59998 18.3C4.59998 19.6 5.60002 20.6 6.90002 20.6H18.7001C20.0001 20.6 21 19.6 21 18.3V10.8H4.5V18.3H4.59998ZM17.3 12.9C17.7 12.9 18.1 13.2 18.1 13.7C18.1 14.1 17.8 14.5 17.3 14.5C16.9 14.5 16.5 14.2 16.5 13.7C16.6 13.2 16.9 12.9 17.3 12.9ZM12.8 12.9C13.2 12.9 13.6 13.2 13.6 13.7C13.6 14.1 13.3 14.5 12.8 14.5C12.4 14.5 12 14.2 12 13.7C12.1 13.2 12.4 12.9 12.8 12.9ZM12.8 16.5C13.2 16.5 13.6 16.8 13.6 17.3C13.6 17.7 13.3 18.1 12.8 18.1C12.4 18.1 12 17.8 12 17.3C12.1 16.9 12.4 16.5 12.8 16.5ZM8.30005 12.9C8.70005 12.9 9.09998 13.2 9.09998 13.7C9.09998 14.1 8.80005 14.5 8.30005 14.5C7.90005 14.5 7.5 14.2 7.5 13.7C7.6 13.2 7.90005 12.9 8.30005 12.9ZM8.30005 16.5C8.70005 16.5 9.09998 16.8 9.09998 17.3C9.09998 17.7 8.80005 18.1 8.30005 18.1C7.90005 18.1 7.5 17.8 7.5 17.3C7.6 16.9 7.90005 16.5 8.30005 16.5Z" fill="#1A1A1A"/>
<path d="M18.7001 5.60001H16.7001V4.10001C16.7001 3.70001 16.4 3.29999 15.9 3.29999C15.4 3.29999 15.1 3.60001 15.1 4.10001V5.60001H10.2001V4.10001C10.2001 3.70001 9.90002 3.29999 9.40002 3.29999C8.90002 3.29999 8.59998 3.60001 8.59998 4.10001V5.60001H6.59998C5.29998 5.60001 4.30005 6.59999 4.30005 7.89999V9.79999H20.8V7.89999C21.1 6.69999 20.0001 5.60001 18.7001 5.60001Z" fill="#1A1A1A"/>
</svg>
