<svg width="29" height="28" viewBox="0 0 29 28" fill="none" xmlns="http://www.w3.org/2000/svg">
<g filter="url(#filter0_di_1851_5634)">
<path d="M12.9375 25C14.6621 25 16.0611 23.6011 16.0611 21.875H9.814C9.814 23.6011 11.2129 25 12.9375 25ZM23.4546 17.6899C22.5113 16.6763 20.7461 15.1514 20.7461 10.1562C20.7461 6.3623 18.086 3.3252 14.4991 2.58008V1.5625C14.4991 0.699707 13.7998 0 12.9375 0C12.0752 0 11.376 0.699707 11.376 1.5625V2.58008C7.7891 3.3252 5.12894 6.3623 5.12894 10.1562C5.12894 15.1514 3.3638 16.6763 2.42044 17.6899C2.12748 18.0049 1.99759 18.3813 2.00003 18.75C2.0054 19.5508 2.63382 20.3125 3.56742 20.3125H22.3077C23.2412 20.3125 23.8702 19.5508 23.875 18.75C23.8775 18.3813 23.7476 18.0044 23.4546 17.6899Z" fill="white"/>
</g>
<g filter="url(#filter1_di_1851_5634)">
<path d="M17 19C17 16.2386 19.2386 14 22 14V14C24.7614 14 27 16.2386 27 19V19C27 21.7614 24.7614 24 22 24V24C19.2386 24 17 21.7614 17 19V19Z" fill="black" fill-opacity="0.02" shape-rendering="crispEdges"/>
<path d="M17 19C17 16.2386 19.2386 14 22 14V14C24.7614 14 27 16.2386 27 19V19C27 21.7614 24.7614 24 22 24V24C19.2386 24 17 21.7614 17 19V19Z" fill="#A587E0" fill-opacity="0.6" shape-rendering="crispEdges"/>
</g>
<defs>
<filter id="filter0_di_1851_5634" x="0" y="0" width="25.875" height="29" filterUnits="userSpaceOnUse" color-interpolation-filters="sRGB">
<feFlood flood-opacity="0" result="BackgroundImageFix"/>
<feColorMatrix in="SourceAlpha" type="matrix" values="0 0 0 0 0 0 0 0 0 0 0 0 0 0 0 0 0 0 127 0" result="hardAlpha"/>
<feOffset dy="2"/>
<feGaussianBlur stdDeviation="1"/>
<feComposite in2="hardAlpha" operator="out"/>
<feColorMatrix type="matrix" values="0 0 0 0 0 0 0 0 0 0 0 0 0 0 0 0 0 0 0.25 0"/>
<feBlend mode="normal" in2="BackgroundImageFix" result="effect1_dropShadow_1851_5634"/>
<feBlend mode="normal" in="SourceGraphic" in2="effect1_dropShadow_1851_5634" result="shape"/>
<feColorMatrix in="SourceAlpha" type="matrix" values="0 0 0 0 0 0 0 0 0 0 0 0 0 0 0 0 0 0 127 0" result="hardAlpha"/>
<feOffset dy="2"/>
<feGaussianBlur stdDeviation="1"/>
<feComposite in2="hardAlpha" operator="arithmetic" k2="-1" k3="1"/>
<feColorMatrix type="matrix" values="0 0 0 0 0 0 0 0 0 0 0 0 0 0 0 0 0 0 0.25 0"/>
<feBlend mode="normal" in2="shape" result="effect2_innerShadow_1851_5634"/>
</filter>
<filter id="filter1_di_1851_5634" x="15" y="14" width="14" height="16" filterUnits="userSpaceOnUse" color-interpolation-filters="sRGB">
<feFlood flood-opacity="0" result="BackgroundImageFix"/>
<feColorMatrix in="SourceAlpha" type="matrix" values="0 0 0 0 0 0 0 0 0 0 0 0 0 0 0 0 0 0 127 0" result="hardAlpha"/>
<feOffset dy="4"/>
<feGaussianBlur stdDeviation="1"/>
<feComposite in2="hardAlpha" operator="out"/>
<feColorMatrix type="matrix" values="0 0 0 0 0 0 0 0 0 0 0 0 0 0 0 0 0 0 0.25 0"/>
<feBlend mode="normal" in2="BackgroundImageFix" result="effect1_dropShadow_1851_5634"/>
<feBlend mode="normal" in="SourceGraphic" in2="effect1_dropShadow_1851_5634" result="shape"/>
<feColorMatrix in="SourceAlpha" type="matrix" values="0 0 0 0 0 0 0 0 0 0 0 0 0 0 0 0 0 0 127 0" result="hardAlpha"/>
<feOffset dy="4"/>
<feGaussianBlur stdDeviation="1"/>
<feComposite in2="hardAlpha" operator="arithmetic" k2="-1" k3="1"/>
<feColorMatrix type="matrix" values="0 0 0 0 0 0 0 0 0 0 0 0 0 0 0 0 0 0 0.25 0"/>
<feBlend mode="normal" in2="shape" result="effect2_innerShadow_1851_5634"/>
</filter>
</defs>
</svg>
