<svg width="46" height="46" viewBox="0 0 46 46" fill="none" xmlns="http://www.w3.org/2000/svg">
<g filter="url(#filter0_di_1688_5431)">
<path d="M23.0201 16.0651L38.0393 1.02586C39.4071 -0.341954 41.613 -0.341954 42.9741 1.02586C44.342 2.39368 44.342 4.59962 42.9741 5.96073L27.955 21.0201L42.9741 36.0393C44.342 37.4071 44.342 39.613 42.9741 40.9741C41.6063 42.342 39.4004 42.342 38.0393 40.9741L23.0201 25.955L7.96073 40.9741C6.59291 42.342 4.38697 42.342 3.02586 40.9741C1.65805 39.6063 1.65805 37.4004 3.02586 36.0393L18.045 21.0201L3.03257 5.96743C1.65805 4.59962 1.65805 2.39368 3.02586 1.03257C4.39368 -0.328544 6.59962 -0.335249 7.96073 1.03257L23.0201 16.0517V16.0651Z" fill="white"/>
</g>
<defs>
<filter id="filter0_di_1688_5431" x="0" y="0" width="46" height="46" filterUnits="userSpaceOnUse" color-interpolation-filters="sRGB">
<feFlood flood-opacity="0" result="BackgroundImageFix"/>
<feColorMatrix in="SourceAlpha" type="matrix" values="0 0 0 0 0 0 0 0 0 0 0 0 0 0 0 0 0 0 127 0" result="hardAlpha"/>
<feOffset dy="2"/>
<feGaussianBlur stdDeviation="1"/>
<feComposite in2="hardAlpha" operator="out"/>
<feColorMatrix type="matrix" values="0 0 0 0 0 0 0 0 0 0 0 0 0 0 0 0 0 0 0.25 0"/>
<feBlend mode="normal" in2="BackgroundImageFix" result="effect1_dropShadow_1688_5431"/>
<feBlend mode="normal" in="SourceGraphic" in2="effect1_dropShadow_1688_5431" result="shape"/>
<feColorMatrix in="SourceAlpha" type="matrix" values="0 0 0 0 0 0 0 0 0 0 0 0 0 0 0 0 0 0 127 0" result="hardAlpha"/>
<feOffset dy="2"/>
<feGaussianBlur stdDeviation="1"/>
<feComposite in2="hardAlpha" operator="arithmetic" k2="-1" k3="1"/>
<feColorMatrix type="matrix" values="0 0 0 0 0 0 0 0 0 0 0 0 0 0 0 0 0 0 0.25 0"/>
<feBlend mode="normal" in2="shape" result="effect2_innerShadow_1688_5431"/>
</filter>
</defs>
</svg>
