<svg width="32" height="35" viewBox="0 0 32 35" fill="none" xmlns="http://www.w3.org/2000/svg">
<g filter="url(#filter0_di_1670_5096)">
<path d="M29 26.5714H3C2.73478 26.5714 2.48043 26.6881 2.29289 26.8957C2.10536 27.1033 2 27.3849 2 27.6786V29.8929C2 30.1865 2.10536 30.4681 2.29289 30.6757C2.48043 30.8834 2.73478 31 3 31H29C29.2652 31 29.5196 30.8834 29.7071 30.6757C29.8946 30.4681 30 30.1865 30 29.8929V27.6786C30 27.3849 29.8946 27.1033 29.7071 26.8957C29.5196 26.6881 29.2652 26.5714 29 26.5714ZM29 17.7143H3C2.73478 17.7143 2.48043 17.8309 2.29289 18.0386C2.10536 18.2462 2 18.5278 2 18.8214V21.0357C2 21.3293 2.10536 21.611 2.29289 21.8186C2.48043 22.0262 2.73478 22.1429 3 22.1429H29C29.2652 22.1429 29.5196 22.0262 29.7071 21.8186C29.8946 21.611 30 21.3293 30 21.0357V18.8214C30 18.5278 29.8946 18.2462 29.7071 18.0386C29.5196 17.8309 29.2652 17.7143 29 17.7143ZM29 8.85714H3C2.73478 8.85714 2.48043 8.97379 2.29289 9.18142C2.10536 9.38905 2 9.67065 2 9.96429V12.1786C2 12.4722 2.10536 12.7538 2.29289 12.9614C2.48043 13.1691 2.73478 13.2857 3 13.2857H29C29.2652 13.2857 29.5196 13.1691 29.7071 12.9614C29.8946 12.7538 30 12.4722 30 12.1786V9.96429C30 9.67065 29.8946 9.38905 29.7071 9.18142C29.5196 8.97379 29.2652 8.85714 29 8.85714ZM29 0H3C2.73478 0 2.48043 0.116645 2.29289 0.324275C2.10536 0.531904 2 0.81351 2 1.10714V3.32143C2 3.61506 2.10536 3.89667 2.29289 4.1043C2.48043 4.31193 2.73478 4.42857 3 4.42857H29C29.2652 4.42857 29.5196 4.31193 29.7071 4.1043C29.8946 3.89667 30 3.61506 30 3.32143V1.10714C30 0.81351 29.8946 0.531904 29.7071 0.324275C29.5196 0.116645 29.2652 0 29 0Z" fill="white"/>
</g>
<defs>
<filter id="filter0_di_1670_5096" x="0" y="0" width="32" height="35" filterUnits="userSpaceOnUse" color-interpolation-filters="sRGB">
<feFlood flood-opacity="0" result="BackgroundImageFix"/>
<feColorMatrix in="SourceAlpha" type="matrix" values="0 0 0 0 0 0 0 0 0 0 0 0 0 0 0 0 0 0 127 0" result="hardAlpha"/>
<feOffset dy="2"/>
<feGaussianBlur stdDeviation="1"/>
<feComposite in2="hardAlpha" operator="out"/>
<feColorMatrix type="matrix" values="0 0 0 0 0 0 0 0 0 0 0 0 0 0 0 0 0 0 0.25 0"/>
<feBlend mode="normal" in2="BackgroundImageFix" result="effect1_dropShadow_1670_5096"/>
<feBlend mode="normal" in="SourceGraphic" in2="effect1_dropShadow_1670_5096" result="shape"/>
<feColorMatrix in="SourceAlpha" type="matrix" values="0 0 0 0 0 0 0 0 0 0 0 0 0 0 0 0 0 0 127 0" result="hardAlpha"/>
<feOffset dy="2"/>
<feGaussianBlur stdDeviation="1"/>
<feComposite in2="hardAlpha" operator="arithmetic" k2="-1" k3="1"/>
<feColorMatrix type="matrix" values="0 0 0 0 0 0 0 0 0 0 0 0 0 0 0 0 0 0 0.25 0"/>
<feBlend mode="normal" in2="shape" result="effect2_innerShadow_1670_5096"/>
</filter>
</defs>
</svg>
