<svg width="39" height="42" viewBox="0 0 39 42" fill="none" xmlns="http://www.w3.org/2000/svg">
<g filter="url(#filter0_di_1670_5094)">
<path fill-rule="evenodd" clip-rule="evenodd" d="M17.875 3.83398C25.9522 3.83398 32.5 10.5497 32.5 18.834C32.5 22.3753 31.3035 25.63 29.3025 28.1959L35.274 34.3221C35.9087 34.973 35.9087 36.0283 35.274 36.6792C34.6883 37.28 33.7665 37.3262 33.129 36.8178L32.976 36.6792L27.0029 30.5545C24.5011 32.6068 21.3278 33.834 17.875 33.834C9.79784 33.834 3.25 27.1183 3.25 18.834C3.25 10.5497 9.79784 3.83398 17.875 3.83398ZM17.875 7.16732C11.5928 7.16732 6.5 12.3907 6.5 18.834C6.5 25.2773 11.5928 30.5007 17.875 30.5007C24.1572 30.5007 29.25 25.2773 29.25 18.834C29.25 12.3907 24.1572 7.16732 17.875 7.16732Z" fill="white"/>
</g>
<defs>
<filter id="filter0_di_1670_5094" x="-2" y="0.5" width="43" height="44" filterUnits="userSpaceOnUse" color-interpolation-filters="sRGB">
<feFlood flood-opacity="0" result="BackgroundImageFix"/>
<feColorMatrix in="SourceAlpha" type="matrix" values="0 0 0 0 0 0 0 0 0 0 0 0 0 0 0 0 0 0 127 0" result="hardAlpha"/>
<feOffset dy="2"/>
<feGaussianBlur stdDeviation="1"/>
<feComposite in2="hardAlpha" operator="out"/>
<feColorMatrix type="matrix" values="0 0 0 0 0 0 0 0 0 0 0 0 0 0 0 0 0 0 0.25 0"/>
<feBlend mode="normal" in2="BackgroundImageFix" result="effect1_dropShadow_1670_5094"/>
<feBlend mode="normal" in="SourceGraphic" in2="effect1_dropShadow_1670_5094" result="shape"/>
<feColorMatrix in="SourceAlpha" type="matrix" values="0 0 0 0 0 0 0 0 0 0 0 0 0 0 0 0 0 0 127 0" result="hardAlpha"/>
<feOffset dy="2"/>
<feGaussianBlur stdDeviation="1"/>
<feComposite in2="hardAlpha" operator="arithmetic" k2="-1" k3="1"/>
<feColorMatrix type="matrix" values="0 0 0 0 0 0 0 0 0 0 0 0 0 0 0 0 0 0 0.25 0"/>
<feBlend mode="normal" in2="shape" result="effect2_innerShadow_1670_5094"/>
</filter>
</defs>
</svg>
