<svg width="24" height="24" viewBox="0 0 24 24" fill="none" xmlns="http://www.w3.org/2000/svg">
<g filter="url(#filter0_i_1_2460)">
<path fill-rule="evenodd" clip-rule="evenodd" d="M10.6771 0.000123142L13.2241 0C13.3011 0.00357467 13.3687 0.0123834 13.4637 0.033064C14.1602 0.184748 14.4251 0.434877 15.0733 1.9668L15.1789 2.21951L15.5863 3.22902L15.6198 3.24279L16.1447 3.00516C17.2879 2.49392 17.8772 2.27857 18.2734 2.21849L18.3555 2.20794L18.505 2.19987C18.8618 2.19987 19.2252 2.32625 19.5033 2.54629L19.6349 2.66396L21.2632 4.28568L21.3764 4.40533C21.8879 4.96881 21.9356 5.3683 21.3699 6.82425L21.1816 7.29395L20.7379 8.34401L20.7463 8.36451L21.7628 8.74415L22.2529 8.93786C23.5188 9.45548 23.7789 9.73136 23.9481 10.3651C23.9822 10.4929 23.9944 10.5799 23.9983 10.688L24 10.8053V13.0948C24 13.2576 23.9944 13.3495 23.9544 13.5103C23.7859 14.1868 23.5359 14.4444 22.0146 15.0871L21.7636 15.1919L20.7612 15.5965L20.7542 15.6134L21.1167 16.4053C22.018 18.4089 22.0496 18.8482 21.4571 19.508L21.383 19.5883L19.7115 21.2587C19.4123 21.5613 18.986 21.7278 18.5735 21.7278C18.2232 21.7278 17.673 21.5612 16.7351 21.1851L16.233 20.9794L15.661 20.7375L15.6283 20.751L15.3328 21.5437C14.6093 23.4502 14.3614 23.7597 13.6181 23.9515C13.5082 23.9799 13.4297 23.992 13.3405 23.9969L13.1935 24H10.9028C10.7598 24 10.6791 23.9957 10.5371 23.9649C9.84084 23.8139 9.57497 23.5633 8.92545 22.0304L8.81959 21.7776L8.41152 20.7676L8.38012 20.7546L7.61778 21.0973C6.3984 21.6342 5.87015 21.7976 5.49367 21.7976C5.14111 21.7976 4.7821 21.6737 4.4965 21.4515L4.36019 21.3324L2.73412 19.7083L2.54843 19.5058C2.1025 18.9811 2.08057 18.5741 2.62792 17.1736L2.91315 16.4725L3.26133 15.654L3.25406 15.6364L2.4658 15.3426C0.884502 14.7425 0.397176 14.4661 0.165598 13.9615L0.102958 13.8027L0.0506342 13.6269C0.0210273 13.5145 0.00839217 13.434 0.00325841 13.3424L0 13.1912V10.9004C0 10.7363 0.00568552 10.6436 0.0465265 10.4814C0.198793 9.87654 0.414914 9.60791 1.55336 9.09772L2.02519 8.89395L3.23679 8.40394L3.2451 8.38376L2.79209 7.38416C2.0446 5.68616 1.98269 5.16916 2.45431 4.59172L2.51883 4.51596L2.67164 4.35398L4.29139 2.73775C4.58815 2.43931 5.01264 2.27107 5.4258 2.27107C5.72131 2.27107 6.15521 2.38801 6.84966 2.65106L7.54831 2.92805L8.34034 3.26003L8.3728 3.24652L8.67058 2.44866C9.40086 0.52849 9.66154 0.207376 10.4319 0.0349192C10.529 0.0131651 10.5983 0.00388967 10.6771 0.000123142ZM12.6276 2.39796H11.2897L11.101 2.84023C11.0294 3.01605 10.9486 3.22143 10.8573 3.45982L10.4392 4.57848C10.3389 4.84332 10.1488 5.06268 9.9045 5.19989L9.77798 5.26147L8.79504 5.67054C8.54688 5.77381 8.27278 5.7902 8.01648 5.71986L7.86519 5.66726L6.7023 5.17704L6.07417 4.92653L5.65197 4.77069L4.70372 5.71688L4.81532 5.9988C4.85894 6.10498 4.90913 6.2237 4.96636 6.35596L5.15965 6.79433L5.64439 7.85414C5.7605 8.10652 5.78478 8.38968 5.71623 8.65547L5.66396 8.81247L5.26203 9.78927C5.15562 10.0479 4.9629 10.2598 4.71891 10.3905L4.5928 10.4489L3.28771 10.9736L2.63531 11.2532L2.4 11.3622V12.7185L2.68156 12.8406C2.78816 12.8852 2.90785 12.9338 3.04173 12.9869L3.48694 13.1596L4.56878 13.5614C4.84153 13.6598 5.06785 13.8529 5.20822 14.1029L5.27106 14.2325L5.67304 15.2065C5.77627 15.4566 5.79139 15.7326 5.71879 15.9901L5.66472 16.142L5.19818 17.2369L4.90559 17.9591L4.76306 18.3426L5.71138 19.2898L5.99374 19.1782C6.09775 19.1358 6.21175 19.0883 6.336 19.0353L7.20702 18.6511L7.83516 18.3619C8.09802 18.2363 8.39596 18.2113 8.67355 18.2884L8.8104 18.3355L9.79912 18.7437C10.0612 18.8519 10.275 19.0488 10.4049 19.2975L10.4627 19.426L10.7087 20.0469L11.0589 20.8985L11.2615 21.3638L11.3714 21.5998H12.7133L12.9049 21.148L13.1545 20.5106L13.5609 19.4208C13.6611 19.1536 13.8526 18.9324 14.099 18.7947L14.2267 18.7329L15.2112 18.3266C15.4565 18.2254 15.7269 18.2089 15.9804 18.277L16.1301 18.328L17.0572 18.7213L17.7338 18.9969L18.104 19.1397L18.3484 19.2281L19.2978 18.2803L19.1148 17.8288L18.8404 17.2029L18.3547 16.1439C18.2382 15.8911 18.2138 15.6073 18.2827 15.341L18.3352 15.1838L18.7364 14.2112C18.8423 13.9546 19.0332 13.744 19.2749 13.6133L19.3998 13.5547L20.5052 13.1103L21.0694 12.8738L21.2246 12.8063L21.6 12.6345V11.2795L21.2236 11.1188L20.7138 10.9171L19.4269 10.438C19.1548 10.339 18.9292 10.1455 18.7896 9.89544L18.7271 9.76585L18.3258 8.78798C18.2234 8.5385 18.2086 8.26337 18.2809 8.00674L18.3348 7.85534L18.7074 6.98419C18.8043 6.75381 18.8888 6.54952 18.9617 6.36895L19.0924 6.03876L19.2349 5.65291L18.286 4.70795L18.0035 4.81976C17.8472 4.88349 17.6682 4.95912 17.4651 5.04743L17.2539 5.14L16.1464 5.64234C15.8945 5.75779 15.6121 5.7818 15.3469 5.71343L15.1903 5.66131L14.2022 5.25511C13.9436 5.14878 13.7316 4.9561 13.6008 4.71212L13.5424 4.58601L13.193 3.71186L12.9398 3.09945L12.7996 2.77375L12.6276 2.39796ZM12.0006 7.19841C14.6479 7.19841 16.8 9.35023 16.8 11.9978C16.8 14.6456 14.6478 16.7993 12.0006 16.7993C9.35259 16.7993 7.2 14.6459 7.2 11.9978C7.2 9.34985 9.35243 7.19841 12.0006 7.19841ZM12.0006 9.59864C10.6776 9.59864 9.6 10.6758 9.6 11.9978C9.6 13.3205 10.6782 14.3991 12.0006 14.3991C13.322 14.3991 14.4 13.3203 14.4 11.9978C14.4 10.6759 13.3226 9.59864 12.0006 9.59864Z" fill="white"/>
</g>
<defs>
<filter id="filter0_i_1_2460" x="0" y="0" width="24" height="28" filterUnits="userSpaceOnUse" color-interpolation-filters="sRGB">
<feFlood flood-opacity="0" result="BackgroundImageFix"/>
<feBlend mode="normal" in="SourceGraphic" in2="BackgroundImageFix" result="shape"/>
<feColorMatrix in="SourceAlpha" type="matrix" values="0 0 0 0 0 0 0 0 0 0 0 0 0 0 0 0 0 0 127 0" result="hardAlpha"/>
<feOffset dy="4"/>
<feGaussianBlur stdDeviation="2"/>
<feComposite in2="hardAlpha" operator="arithmetic" k2="-1" k3="1"/>
<feColorMatrix type="matrix" values="0 0 0 0 0 0 0 0 0 0 0 0 0 0 0 0 0 0 0.25 0"/>
<feBlend mode="normal" in2="shape" result="effect1_innerShadow_1_2460"/>
</filter>
</defs>
</svg>
