<svg width="28" height="28" viewBox="0 0 28 28" fill="none" xmlns="http://www.w3.org/2000/svg">
<g filter="url(#filter0_di_1_2461)">
<path fill-rule="evenodd" clip-rule="evenodd" d="M12.6771 0.000123142L15.2241 0C15.3011 0.00357467 15.3687 0.0123834 15.4637 0.033064C16.1602 0.184748 16.4251 0.434877 17.0733 1.9668L17.1789 2.21951L17.5863 3.22902L17.6198 3.24279L18.1447 3.00516C19.2879 2.49392 19.8772 2.27857 20.2734 2.21849L20.3555 2.20794L20.505 2.19987C20.8618 2.19987 21.2252 2.32625 21.5033 2.54629L21.6349 2.66396L23.2632 4.28568L23.3764 4.40533C23.8879 4.96881 23.9356 5.3683 23.3699 6.82425L23.1816 7.29395L22.7379 8.34401L22.7463 8.36451L23.7628 8.74415L24.2529 8.93786C25.5188 9.45548 25.7789 9.73136 25.9481 10.3651C25.9822 10.4929 25.9944 10.5799 25.9983 10.688L26 10.8053V13.0948C26 13.2576 25.9944 13.3495 25.9544 13.5103C25.7859 14.1868 25.5359 14.4444 24.0146 15.0871L23.7636 15.1919L22.7612 15.5965L22.7542 15.6134L23.1167 16.4053C24.018 18.4089 24.0496 18.8482 23.4571 19.508L23.383 19.5883L21.7115 21.2587C21.4123 21.5613 20.986 21.7278 20.5735 21.7278C20.2232 21.7278 19.673 21.5612 18.7351 21.1851L18.233 20.9794L17.661 20.7375L17.6283 20.751L17.3328 21.5437C16.6093 23.4502 16.3614 23.7597 15.6181 23.9515C15.5082 23.9799 15.4297 23.992 15.3405 23.9969L15.1935 24H12.9028C12.7598 24 12.6791 23.9957 12.5371 23.9649C11.8408 23.8139 11.575 23.5633 10.9255 22.0304L10.8196 21.7776L10.4115 20.7676L10.3801 20.7546L9.61778 21.0973C8.3984 21.6342 7.87015 21.7976 7.49367 21.7976C7.14111 21.7976 6.7821 21.6737 6.4965 21.4515L6.36019 21.3324L4.73412 19.7083L4.54843 19.5058C4.1025 18.9811 4.08057 18.5741 4.62792 17.1736L4.91315 16.4725L5.26133 15.654L5.25406 15.6364L4.4658 15.3426C2.8845 14.7425 2.39718 14.4661 2.1656 13.9615L2.10296 13.8027L2.05063 13.6269C2.02103 13.5145 2.00839 13.434 2.00326 13.3424L2 13.1912V10.9004C2 10.7363 2.00569 10.6436 2.04653 10.4814C2.19879 9.87654 2.41491 9.60791 3.55336 9.09772L4.02519 8.89395L5.23679 8.40394L5.2451 8.38376L4.79209 7.38416C4.0446 5.68616 3.98269 5.16916 4.45431 4.59172L4.51883 4.51596L4.67164 4.35398L6.29139 2.73775C6.58815 2.43931 7.01264 2.27107 7.4258 2.27107C7.72131 2.27107 8.15521 2.38801 8.84966 2.65106L9.54831 2.92805L10.3403 3.26003L10.3728 3.24652L10.6706 2.44866C11.4009 0.52849 11.6615 0.207376 12.4319 0.0349192C12.529 0.0131651 12.5983 0.00388967 12.6771 0.000123142ZM14.6276 2.39796H13.2897L13.101 2.84023C13.0294 3.01605 12.9486 3.22143 12.8573 3.45982L12.4392 4.57848C12.3389 4.84332 12.1488 5.06268 11.9045 5.19989L11.778 5.26147L10.795 5.67054C10.5469 5.77381 10.2728 5.7902 10.0165 5.71986L9.86519 5.66725L8.7023 5.17704L8.07417 4.92653L7.65197 4.77069L6.70372 5.71688L6.81532 5.9988C6.85894 6.10498 6.90913 6.2237 6.96636 6.35596L7.15965 6.79433L7.64439 7.85414C7.7605 8.10652 7.78478 8.38968 7.71623 8.65547L7.66396 8.81247L7.26203 9.78927C7.15562 10.0479 6.9629 10.2598 6.7189 10.3905L6.5928 10.4489L5.28771 10.9736L4.63531 11.2532L4.4 11.3622V12.7185L4.68156 12.8406C4.78816 12.8852 4.90785 12.9338 5.04173 12.9869L5.48694 13.1596L6.56878 13.5614C6.84153 13.6598 7.06785 13.8529 7.20822 14.1029L7.27106 14.2325L7.67304 15.2065C7.77627 15.4566 7.79139 15.7326 7.71879 15.9901L7.66472 16.142L7.19818 17.2369L6.90559 17.9591L6.76306 18.3426L7.71138 19.2898L7.99374 19.1782C8.09775 19.1358 8.21175 19.0883 8.336 19.0353L9.20702 18.6511L9.83516 18.3619C10.098 18.2363 10.396 18.2113 10.6736 18.2884L10.8104 18.3355L11.7991 18.7437C12.0612 18.8519 12.275 19.0488 12.4049 19.2975L12.4627 19.426L12.7087 20.0469L13.0589 20.8985L13.2615 21.3638L13.3714 21.5998H14.7133L14.9049 21.148L15.1545 20.5106L15.5609 19.4208C15.6611 19.1536 15.8526 18.9324 16.099 18.7947L16.2267 18.7329L17.2112 18.3266C17.4565 18.2254 17.7269 18.2089 17.9804 18.277L18.1301 18.328L19.0572 18.7213L19.7338 18.9969L20.104 19.1397L20.3484 19.2281L21.2978 18.2803L21.1148 17.8288L20.8404 17.2029L20.3547 16.1439C20.2382 15.8911 20.2138 15.6073 20.2827 15.341L20.3352 15.1838L20.7364 14.2112C20.8423 13.9546 21.0332 13.744 21.2749 13.6133L21.3998 13.5547L22.5052 13.1103L23.0694 12.8738L23.2246 12.8063L23.6 12.6345V11.2795L23.2236 11.1188L22.7138 10.9171L21.4269 10.438C21.1548 10.339 20.9292 10.1455 20.7896 9.89544L20.7271 9.76585L20.3258 8.78798C20.2234 8.5385 20.2086 8.26337 20.2809 8.00674L20.3348 7.85534L20.7074 6.98419C20.8043 6.75381 20.8888 6.54952 20.9617 6.36895L21.0924 6.03876L21.2349 5.65291L20.286 4.70795L20.0035 4.81976C19.8472 4.88349 19.6682 4.95912 19.4651 5.04743L19.2539 5.14L18.1464 5.64234C17.8945 5.75779 17.6121 5.7818 17.3469 5.71343L17.1903 5.66131L16.2022 5.25511C15.9436 5.14878 15.7316 4.9561 15.6008 4.71212L15.5424 4.58601L15.193 3.71186L14.9398 3.09945L14.7996 2.77375L14.6276 2.39796ZM14.0006 7.19841C16.6479 7.19841 18.8 9.35023 18.8 11.9978C18.8 14.6456 16.6478 16.7993 14.0006 16.7993C11.3526 16.7993 9.2 14.6459 9.2 11.9978C9.2 9.34985 11.3524 7.19841 14.0006 7.19841ZM14.0006 9.59864C12.6776 9.59864 11.6 10.6758 11.6 11.9978C11.6 13.3205 12.6782 14.3991 14.0006 14.3991C15.322 14.3991 16.4 13.3203 16.4 11.9978C16.4 10.6759 15.3226 9.59864 14.0006 9.59864Z" fill="white"/>
</g>
<defs>
<filter id="filter0_di_1_2461" x="0" y="0" width="28" height="28" filterUnits="userSpaceOnUse" color-interpolation-filters="sRGB">
<feFlood flood-opacity="0" result="BackgroundImageFix"/>
<feColorMatrix in="SourceAlpha" type="matrix" values="0 0 0 0 0 0 0 0 0 0 0 0 0 0 0 0 0 0 127 0" result="hardAlpha"/>
<feOffset dy="2"/>
<feGaussianBlur stdDeviation="1"/>
<feComposite in2="hardAlpha" operator="out"/>
<feColorMatrix type="matrix" values="0 0 0 0 0 0 0 0 0 0 0 0 0 0 0 0 0 0 0.25 0"/>
<feBlend mode="normal" in2="BackgroundImageFix" result="effect1_dropShadow_1_2461"/>
<feBlend mode="normal" in="SourceGraphic" in2="effect1_dropShadow_1_2461" result="shape"/>
<feColorMatrix in="SourceAlpha" type="matrix" values="0 0 0 0 0 0 0 0 0 0 0 0 0 0 0 0 0 0 127 0" result="hardAlpha"/>
<feOffset dy="2"/>
<feGaussianBlur stdDeviation="1"/>
<feComposite in2="hardAlpha" operator="arithmetic" k2="-1" k3="1"/>
<feColorMatrix type="matrix" values="0 0 0 0 0 0 0 0 0 0 0 0 0 0 0 0 0 0 0.25 0"/>
<feBlend mode="normal" in2="shape" result="effect2_innerShadow_1_2461"/>
</filter>
</defs>
</svg>
