<svg width="19" height="19" viewBox="0 0 19 19" fill="#a587e069" xmlns="http://www.w3.org/2000/svg">
<path d="M8.79997 1.80001C5.19997 2.20001 2.19997 5.00001 1.59997 8.60001C1.29997 10.4 1.59997 12.1 2.29997 13.5C2.49997 13.8 2.49997 14.2 2.39997 14.5C2.19997 15.2 1.89997 16.5 1.69997 17.4C1.59997 17.8 1.89997 18.1 2.29997 18L5.19997 17.3C5.59997 17.2 5.89997 17.3 6.19997 17.4C7.59997 18.1 9.29998 18.4 11.1 18.1C14.7 17.5 17.5 14.5 17.9 10.9C18.5 5.60001 14.1 1.20001 8.79997 1.80001Z" stroke="#0000000a" stroke-width="1.5" stroke-miterlimit="10" stroke-linecap="round" stroke-linejoin="round"/>
</svg>
