<svg width="19" height="19" viewBox="0 0 19 19" fill="none" xmlns="http://www.w3.org/2000/svg">
<path d="M18 3.40001V15.9C18 17 17.1 17.9 16 17.9H3.5C3 17.9 2.5 17.7 2.1 17.3C1.7 16.9 1.5 16.4 1.5 15.9V3.40001C1.5 2.30001 2.4 1.40001 3.5 1.40001H16C17.1 1.40001 18 2.30001 18 3.40001Z" stroke="#B4B4B4" stroke-width="1.5" stroke-miterlimit="10" stroke-linecap="round" stroke-linejoin="round"/>
<path d="M11.6 17.9H3.4C2.9 17.9 2.4 17.7 2 17.3L5.1 14.2C5.9 13.4 7.1 13.4 7.9 14.2L8.4 14.7L11.6 17.9Z" stroke="#B4B4B4" stroke-width="1.5" stroke-miterlimit="10" stroke-linecap="round" stroke-linejoin="round"/>
<path d="M18 12.9V16C18 17.1 17.1 18 16 18H11.7L8.5 14.8L12.8 10.5C13.6 9.70001 14.8 9.70001 15.6 10.5L18 12.9Z" stroke="#B4B4B4" stroke-width="1.5" stroke-miterlimit="10" stroke-linecap="round" stroke-linejoin="round"/>
<path d="M6.60004 7.30002C7.04187 7.30002 7.40005 6.94184 7.40005 6.50002C7.40005 6.05819 7.04187 5.70001 6.60004 5.70001C6.15822 5.70001 5.80005 6.05819 5.80005 6.50002C5.80005 6.94184 6.15822 7.30002 6.60004 7.30002Z" fill="#B4B4B4"/>
</svg>
