<?xml version="1.0" encoding="utf-8"?>
<!-- Svg Vector Icons : http://www.onlinewebfonts.com/icon -->
<!DOCTYPE svg PUBLIC "-//W3C//DTD SVG 1.1//EN" "http://www.w3.org/Graphics/SVG/1.1/DTD/svg11.dtd">
<svg version="1.1" xmlns="http://www.w3.org/2000/svg" xmlns:xlink="http://www.w3.org/1999/xlink" x="0px" y="0px" viewBox="0 0 1000 1000" enable-background="new 0 0 1000 1000" xml:space="preserve">
<metadata> Svg Vector Icons : http://www.onlinewebfonts.com/icon </metadata>
<g><g transform="translate(0.000000,511.000000) scale(0.100000,-0.100000)">
<path fill="#797979" d="M6865,4871.7c-204.3-78.1-374.6-144.2-378.6-148.2c-4-4,1522.5-4032.6,1610.6-4248.9l26-64.1l378.6,142.2c206.3,80.1,378.6,146.2,382.6,148.2c6,4-1634.6,4295-1646.7,4309C7237.6,5012,7069.4,4949.9,6865,4871.7z"/>
<path fill="#797979" d="M8030.9,3589.6c-60.1-24-112.2-52.1-116.2-66.1c-10-22,444.7-1228,472.8-1260c10-8,76.1,4,148.3,28l132.2,44.1l-26,62.1c-16,36.1-128.2,328.5-254.4,651.1c-124.2,320.5-232.4,585-238.4,582.9C8143.1,3631.7,8089,3611.7,8030.9,3589.6z"/>
<path fill="#797979" d="M1115.7-661.3c0-3245.3,2-3399.5,36.1-3513.7c80.1-250.4,280.5-464.8,540.9-568.9l114.2-46.1h2263.7h2263.7l110.2,44.1c222.4,92.2,414.7,284.5,506.8,506.8l44.1,110.2l6,3431.6l4,3429.6H4060.5H1115.7V-661.3z M2578-1204.2v-2494.1h-310.5H1957v2494.1v2494h310.5H2578V-1204.2z M4361-1204.2v-2494.1h-300.5H3760v2494.1v2494h300.5H4361V-1204.2z M6204-1204.2v-2494.1h-300.5H5603v2494.1v2494h300.5H6204V-1204.2z"/></g></g>
</svg>