<?xml version="1.0" encoding="utf-8"?>
<!-- Svg Vector Icons : http://www.onlinewebfonts.com/icon -->
<!DOCTYPE svg PUBLIC "-//W3C//DTD SVG 1.1//EN" "http://www.w3.org/Graphics/SVG/1.1/DTD/svg11.dtd">
<svg version="1.1" xmlns="http://www.w3.org/2000/svg" xmlns:xlink="http://www.w3.org/1999/xlink" x="0px" y="0px" viewBox="0 0 1000 1000" enable-background="new 0 0 1000 1000" xml:space="preserve">
<metadata> Svg Vector Icons : http://www.onlinewebfonts.com/icon </metadata>
<g><g transform="translate(0.000000,511.000000) scale(0.100000,-0.100000)">
<path fill="#797979" d="M4020.1,4810v-200H4980h959.9v200v200H4980h-959.9V4810z"/>
<path fill="#797979" d="M1840.3,3940.1v-549.9H4990h3149.7v549.9v549.9H4990H1840.3V3940.1z"/>
<path fill="#797979" d="M1860.3-365.4c0-3951.6-6-3725.6,114-3947.6c116-212,391.9-407.9,643.9-456c148-28,4635.5-28,4783.5,0c364,70,671.9,376,737.9,737.9c12,68,20,1391.8,20,3693.6v3587.6H5010H1860.3V-365.4z M3410.2-959.4v-2659.7l-324-6l-326-4v2669.7v2669.7l326-4l324-6V-959.4z M5340-959.4v-2669.7h-330h-330v2669.7v2669.7h330h330V-959.4z M7299.8-959.4v-2669.7h-330h-330v2669.7v2669.7h330h330V-959.4z"/></g></g>
</svg>