<svg width="16" height="16" viewBox="0 0 16 16" fill="none" xmlns="http://www.w3.org/2000/svg">
<path fill-rule="evenodd" clip-rule="evenodd" d="M9.41425 8.00025L14.7072 2.70725C15.0982 2.31625 15.0982 1.68425 14.7072 1.29325C14.3162 0.90225 13.6843 0.90225 13.2933 1.29325L8.00025 6.58625L2.70725 1.29325C2.31625 0.90225 1.68425 0.90225 1.29325 1.29325C0.90225 1.68425 0.90225 2.31625 1.29325 2.70725L6.58625 8.00025L1.29325 13.2933C0.90225 13.6843 0.90225 14.3162 1.29325 14.7072C1.48825 14.9022 1.74425 15.0002 2.00025 15.0002C2.25625 15.0002 2.51225 14.9022 2.70725 14.7072L8.00025 9.41425L13.2933 14.7072C13.4883 14.9022 13.7442 15.0002 14.0002 15.0002C14.2562 15.0002 14.5122 14.9022 14.7072 14.7072C15.0982 14.3162 15.0982 13.6843 14.7072 13.2933L9.41425 8.00025Z" fill="#797979" stroke="#797979"/>
</svg>
