<svg width="14" height="17" viewBox="0 0 14 17" fill="none" xmlns="http://www.w3.org/2000/svg">
<path d="M13.5001 5.29999V14.7C13.5001 15.8 12.6001 16.7 11.5001 16.7H5.20007C4.10007 16.7 3.20007 15.8 3.20007 14.7V14.1H8.40009C9.80009 14.1 10.9001 13 10.9001 11.6V3.29999H11.5001C12.6001 3.29999 13.5001 4.19999 13.5001 5.29999Z" fill="#797979"/>
<path d="M3.70007 0.799988V2.39999C3.70007 3.19999 3.00007 3.89999 2.20007 3.89999H0.600098C0.700098 3.59999 0.800061 3.30001 1.00006 3.10001L2.90009 1.19998C3.10009 0.999982 3.40007 0.799988 3.70007 0.799988Z" fill="#797979"/>
<path d="M9.90009 2.19998V11.6C9.90009 12.4 9.20009 13.1 8.40009 13.1H2.1001C1.3001 13.1 0.600098 12.4 0.600098 11.6V4.79999H2.20007C3.60007 4.79999 4.70007 3.69999 4.70007 2.29999V0.699982H8.40009C9.20009 0.699982 9.90009 1.39998 9.90009 2.19998Z" fill="#797979"/>
</svg>
